<svg width="67" height="67" viewBox="0 0 67 67" fill="none" xmlns="http://www.w3.org/2000/svg">
<path d="M49.1334 14.8238L33.3605 6.33711C31.6855 5.44378 29.7034 5.44378 28.0284 6.33711L12.2834 14.8238C11.1388 15.4659 10.413 16.6942 10.413 18.0342C10.413 19.4021 11.1109 20.6304 12.2834 21.2446L28.0563 29.7313C28.8938 30.1779 29.815 30.4013 30.7084 30.4013C31.6017 30.4013 32.5509 30.1779 33.3605 29.7313L49.1334 21.2446C50.278 20.6304 51.0038 19.4021 51.0038 18.0342C51.0038 16.6942 50.278 15.4659 49.1334 14.8238Z" fill="#EDA415"/>
<path d="M25.46 32.6905L10.8038 25.3763C9.65921 24.7901 8.37504 24.8738 7.28629 25.5159C6.22546 26.1859 5.58337 27.3305 5.58337 28.5867V42.4334C5.58337 44.8342 6.92337 46.9838 9.07296 48.0726L23.7292 55.3867C24.2317 55.638 24.79 55.7776 25.3484 55.7776C25.9905 55.7776 26.6605 55.5822 27.2467 55.2472C28.3075 54.5772 28.9496 53.4326 28.9496 52.1763V38.3297C28.9217 35.9288 27.5817 33.7792 25.46 32.6905Z" fill="#EDA415"/>
<path d="M55.8333 28.5867V35.4542C54.4933 35.0634 53.0696 34.8959 51.6458 34.8959C47.8492 34.8959 44.1362 36.208 41.205 38.553C37.185 41.7076 34.8958 46.4813 34.8958 51.6459C34.8958 53.0138 35.0633 54.3817 35.4262 55.6938C35.0075 55.638 34.5887 55.4705 34.1979 55.2192C33.1371 54.5772 32.495 53.4326 32.495 52.1763V38.3297C32.495 35.9288 33.835 33.7792 35.9567 32.6905L50.6129 25.3763C51.7575 24.7901 53.0417 24.8738 54.1304 25.5159C55.1912 26.1859 55.8333 27.3305 55.8333 28.5867Z" fill="#EDA415"/>
<path d="M61.3609 43.7454C59.0717 40.9258 55.5821 39.1392 51.6459 39.1392C48.6867 39.1392 45.9509 40.1721 43.8013 41.9029C40.898 44.1921 39.0834 47.7375 39.0834 51.7017C39.0834 54.0467 39.7534 56.28 40.898 58.1783C41.6517 59.4346 42.6009 60.5233 43.7175 61.4167H43.7455C45.895 63.2033 48.6588 64.2642 51.6459 64.2642C54.8284 64.2642 57.7038 63.0917 59.9092 61.1375C60.8863 60.3 61.7238 59.295 62.3938 58.1783C63.5384 56.28 64.2084 54.0467 64.2084 51.7017C64.2084 48.6867 63.1475 45.895 61.3609 43.7454ZM57.955 50.1383L51.255 56.3358C50.8642 56.6987 50.3338 56.8942 49.8313 56.8942C49.3009 56.8942 48.7705 56.6987 48.3517 56.28L45.253 53.1812C44.4434 52.3717 44.4434 51.0317 45.253 50.2221C46.0625 49.4125 47.4025 49.4125 48.2121 50.2221L49.8871 51.8971L55.1075 47.0675C55.945 46.2858 57.285 46.3417 58.0667 47.1792C58.8763 48.0446 58.8205 49.3567 57.955 50.1383Z" fill="#EDA415"/>
</svg>
