<svg width="67" height="67" viewBox="0 0 67 67" fill="none" xmlns="http://www.w3.org/2000/svg">
<path d="M47.4583 61.4166H19.5416C18.397 61.4166 17.4479 60.4675 17.4479 59.3229C17.4479 58.1783 18.397 57.2291 19.5416 57.2291H47.4583C48.6029 57.2291 49.552 58.1783 49.552 59.3229C49.552 60.4675 48.6029 61.4166 47.4583 61.4166Z" fill="#EDA415"/>
<path d="M56.8104 15.4099L45.6438 23.3941C44.1642 24.4549 42.0425 23.8129 41.4004 22.1099L36.1242 8.03995C35.2308 5.6112 31.7971 5.6112 30.9038 8.03995L25.5996 22.082C24.9575 23.8129 22.8638 24.4549 21.3842 23.3662L10.2175 15.382C7.98417 13.8187 5.025 16.0241 5.94625 18.6204L17.5596 51.1433C17.9504 52.2599 19.0113 52.9858 20.1838 52.9858H46.7883C47.9608 52.9858 49.0217 52.232 49.4125 51.1433L61.0258 18.6204C61.975 16.0241 59.0158 13.8187 56.8104 15.4099ZM40.4792 41.177H26.5208C25.3763 41.177 24.4271 40.2279 24.4271 39.0833C24.4271 37.9387 25.3763 36.9895 26.5208 36.9895H40.4792C41.6238 36.9895 42.5729 37.9387 42.5729 39.0833C42.5729 40.2279 41.6238 41.177 40.4792 41.177Z" fill="#EDA415"/>
</svg>
